<svg xmlns="http://www.w3.org/2000/svg" viewBox="0 0 512 512"><path fill-rule="evenodd" d="M436.2 437.4A256 256 0 0 1 255 512h1a256 256 0 1 1 0-512 256 256 0 0 1 180.2 437.4Zm-355.7-126V346a13 13 0 1 0 26 0v-34.5H141a13 13 0 1 0 0-26h-34.5V251a13 13 0 1 0-26 0v34.5H46a13 13 0 1 0 0 26h34.5Zm267.8-149.9a35 35 0 0 1 32.5 18.8c7.1 12.5 10.7 34 10.7 64.5 0 30.4-3.6 52-10.7 64.4a35 35 0 0 1-32.5 18.8 35 35 0 0 1-32.6-18.8c-7-12.5-10.6-34-10.6-64.4 0-30.5 3.5-52 10.6-64.5a35 35 0 0 1 32.6-18.8Zm0 200.6c29.4 0 51.3-9.3 65.7-27.8 14.6-18.6 22-48.4 22-89.5 0-41.2-7.4-71-22-89.6-14.4-18.5-36.3-27.8-65.7-27.8-29.4 0-51.4 9.3-66 27.8-14.5 18.6-21.7 48.4-21.7 89.6 0 41 7.2 70.9 21.6 89.5 14.7 18.5 36.7 27.8 66 27.8ZM134.9 215.6a8.2 8.2 0 0 0 9.4-.9l47-36 .3-.3.3.3v162.5c0 4.8 1.8 9 5.3 12.5 3.6 3.5 7.7 5.3 12.5 5.3h9.4c4.8 0 8.9-1.8 12.2-5.3a17 17 0 0 0 5.4-12.5V148.4c0-4.8-1.8-9-5.4-12.6a16.1 16.1 0 0 0-12.2-5.3h-9.4a51.6 51.6 0 0 0-31.9 10.7l-33.5 25.6a34.4 34.4 0 0 0-14 28.5v12.5c0 3.6 1.5 6.2 4.6 7.8Z" clip-rule="evenodd"/></svg>